<?xml version="1.0" encoding="UTF-8" standalone="no"?>
<!DOCTYPE svg PUBLIC "-//W3C//DTD SVG 1.1//EN"
 "http://www.w3.org/Graphics/SVG/1.1/DTD/svg11.dtd">
<!-- Generated by graphviz version 15.0.0 (20260523.1842)
 -->
<!-- Title: CatalogRefreshPolicySequence Pages: 1 -->
<svg width="759pt" height="191pt"
 viewBox="0.00 0.00 759.00 191.00" xmlns="http://www.w3.org/2000/svg" xmlns:xlink="http://www.w3.org/1999/xlink">
<g id="graph0" class="graph" transform="scale(1 1) rotate(0) translate(4 186.9)">
<title>CatalogRefreshPolicySequence</title>
<!-- caller -->
<g id="node1" class="node">
<title>caller</title>
<path fill="#d7ecf2" stroke="#526d7a" stroke-width="1.4" d="M48.66,-109.45C48.66,-109.45 12,-109.45 12,-109.45 6,-109.45 0,-103.45 0,-97.45 0,-97.45 0,-85.45 0,-85.45 0,-79.45 6,-73.45 12,-73.45 12,-73.45 48.66,-73.45 48.66,-73.45 54.66,-73.45 60.66,-79.45 60.66,-85.45 60.66,-85.45 60.66,-97.45 60.66,-97.45 60.66,-103.45 54.66,-109.45 48.66,-109.45"/>
<text xml:space="preserve" text-anchor="middle" x="30.33" y="-87.17" font-family="Comic Mono" font-size="12.00">Caller</text>
</g>
<!-- retry -->
<g id="node2" class="node">
<title>retry</title>
<path fill="#f7e5aa" stroke="#526d7a" stroke-width="1.4" d="M214.57,-112.9C214.57,-112.9 130.66,-112.9 130.66,-112.9 124.66,-112.9 118.66,-106.9 118.66,-100.9 118.66,-100.9 118.66,-82 118.66,-82 118.66,-76 124.66,-70 130.66,-70 130.66,-70 214.57,-70 214.57,-70 220.57,-70 226.57,-76 226.57,-82 226.57,-82 226.57,-100.9 226.57,-100.9 226.57,-106.9 220.57,-112.9 214.57,-112.9"/>
<text xml:space="preserve" text-anchor="middle" x="172.62" y="-94.3" font-family="Comic Mono" font-size="12.00">Retry policy</text>
<text xml:space="preserve" text-anchor="middle" x="172.62" y="-80.05" font-family="Comic Mono" font-size="12.00">outer wrapper</text>
</g>
<!-- caller&#45;&gt;retry -->
<g id="edge1" class="edge">
<title>caller&#45;&gt;retry</title>
<path fill="none" stroke="#47616f" stroke-width="1.6" d="M61.2,-91.45C61.2,-91.45 108.07,-91.45 108.07,-91.45"/>
<polygon fill="#47616f" stroke="#47616f" stroke-width="1.6" points="108.07,-94.08 115.57,-91.45 108.07,-88.83 108.07,-94.08"/>
<text xml:space="preserve" text-anchor="middle" x="103.01" y="-81.95" font-family="Comic Mono" font-size="10.00">Refresh</text>
</g>
<!-- timeout1 -->
<g id="node3" class="node">
<title>timeout1</title>
<path fill="#f9dacd" stroke="#526d7a" stroke-width="1.4" d="M387.23,-182.9C387.23,-182.9 296.57,-182.9 296.57,-182.9 290.57,-182.9 284.57,-176.9 284.57,-170.9 284.57,-170.9 284.57,-152 284.57,-152 284.57,-146 290.57,-140 296.57,-140 296.57,-140 387.23,-140 387.23,-140 393.23,-140 399.23,-146 399.23,-152 399.23,-152 399.23,-170.9 399.23,-170.9 399.23,-176.9 393.23,-182.9 387.23,-182.9"/>
<text xml:space="preserve" text-anchor="middle" x="341.9" y="-164.3" font-family="Comic Mono" font-size="12.00">Timeout policy</text>
<text xml:space="preserve" text-anchor="middle" x="341.9" y="-150.05" font-family="Comic Mono" font-size="12.00">attempt 1</text>
</g>
<!-- retry&#45;&gt;timeout1 -->
<g id="edge2" class="edge">
<title>retry&#45;&gt;timeout1</title>
<path fill="none" stroke="#47616f" stroke-width="1.6" d="M172.3,-113.6C172.3,-134.11 172.3,-161.45 172.3,-161.45 172.3,-161.45 274.09,-161.45 274.09,-161.45"/>
<polygon fill="#47616f" stroke="#47616f" stroke-width="1.6" points="274.09,-164.08 281.59,-161.45 274.09,-158.83 274.09,-164.08"/>
<text xml:space="preserve" text-anchor="middle" x="175.64" y="-151.95" font-family="Comic Mono" font-size="10.00">attempt 1</text>
</g>
<!-- timeout2 -->
<g id="node5" class="node">
<title>timeout2</title>
<path fill="#d8ead4" stroke="#526d7a" stroke-width="1.4" d="M387.23,-42.9C387.23,-42.9 296.57,-42.9 296.57,-42.9 290.57,-42.9 284.57,-36.9 284.57,-30.9 284.57,-30.9 284.57,-12 284.57,-12 284.57,-6 290.57,0 296.57,0 296.57,0 387.23,0 387.23,0 393.23,0 399.23,-6 399.23,-12 399.23,-12 399.23,-30.9 399.23,-30.9 399.23,-36.9 393.23,-42.9 387.23,-42.9"/>
<text xml:space="preserve" text-anchor="middle" x="341.9" y="-24.3" font-family="Comic Mono" font-size="12.00">Timeout policy</text>
<text xml:space="preserve" text-anchor="middle" x="341.9" y="-10.05" font-family="Comic Mono" font-size="12.00">attempt 2</text>
</g>
<!-- retry&#45;&gt;timeout2 -->
<g id="edge5" class="edge">
<title>retry&#45;&gt;timeout2</title>
<path fill="none" stroke="#47616f" stroke-width="1.6" d="M172.3,-69.3C172.3,-48.79 172.3,-21.45 172.3,-21.45 172.3,-21.45 274.09,-21.45 274.09,-21.45"/>
<polygon fill="#47616f" stroke="#47616f" stroke-width="1.6" points="274.09,-24.08 281.59,-21.45 274.09,-18.83 274.09,-24.08"/>
<text xml:space="preserve" text-anchor="middle" x="175.64" y="-11.95" font-family="Comic Mono" font-size="10.00">attempt 2</text>
</g>
<!-- source1 -->
<g id="node4" class="node">
<title>source1</title>
<path fill="#f4c7c0" stroke="#526d7a" stroke-width="1.4" d="M566.64,-149.9C566.64,-149.9 469.23,-149.9 469.23,-149.9 463.23,-149.9 457.23,-143.9 457.23,-137.9 457.23,-137.9 457.23,-119 457.23,-119 457.23,-113 463.23,-107 469.23,-107 469.23,-107 566.64,-107 566.64,-107 572.64,-107 578.64,-113 578.64,-119 578.64,-119 578.64,-137.9 578.64,-137.9 578.64,-143.9 572.64,-149.9 566.64,-149.9"/>
<text xml:space="preserve" text-anchor="middle" x="517.93" y="-131.3" font-family="Comic Mono" font-size="12.00">Source call</text>
<text xml:space="preserve" text-anchor="middle" x="517.93" y="-117.05" font-family="Comic Mono" font-size="12.00">transient error</text>
</g>
<!-- timeout1&#45;&gt;source1 -->
<g id="edge3" class="edge">
<title>timeout1&#45;&gt;source1</title>
<path fill="none" stroke="#47616f" stroke-width="1.6" d="M399.54,-144.95C399.54,-144.95 446.91,-144.95 446.91,-144.95"/>
<polygon fill="#47616f" stroke="#47616f" stroke-width="1.6" points="446.91,-147.58 454.41,-144.95 446.91,-142.33 446.91,-147.58"/>
<text xml:space="preserve" text-anchor="middle" x="454.73" y="-147.45" font-family="Comic Mono" font-size="10.00">deadline ctx</text>
</g>
<!-- source1&#45;&gt;retry -->
<g id="edge4" class="edge">
<title>source1&#45;&gt;retry</title>
<path fill="none" stroke="#47616f" stroke-width="1.6" d="M464.3,-106.6C464.3,-97.28 464.3,-88.5 464.3,-88.5 464.3,-88.5 237.06,-88.5 237.06,-88.5"/>
<polygon fill="#47616f" stroke="#47616f" stroke-width="1.6" points="237.06,-85.88 229.56,-88.5 237.06,-91.13 237.06,-85.88"/>
<text xml:space="preserve" text-anchor="middle" x="346.61" y="-79" font-family="Comic Mono" font-size="10.00">error</text>
</g>
<!-- source2 -->
<g id="node6" class="node">
<title>source2</title>
<path fill="#cfe7cf" stroke="#526d7a" stroke-width="1.4" d="M553.14,-42.9C553.14,-42.9 482.73,-42.9 482.73,-42.9 476.73,-42.9 470.73,-36.9 470.73,-30.9 470.73,-30.9 470.73,-12 470.73,-12 470.73,-6 476.73,0 482.73,0 482.73,0 553.14,0 553.14,0 559.14,0 565.14,-6 565.14,-12 565.14,-12 565.14,-30.9 565.14,-30.9 565.14,-36.9 559.14,-42.9 553.14,-42.9"/>
<text xml:space="preserve" text-anchor="middle" x="517.93" y="-24.3" font-family="Comic Mono" font-size="12.00">Source call</text>
<text xml:space="preserve" text-anchor="middle" x="517.93" y="-10.05" font-family="Comic Mono" font-size="12.00">product</text>
</g>
<!-- timeout2&#45;&gt;source2 -->
<g id="edge6" class="edge">
<title>timeout2&#45;&gt;source2</title>
<path fill="none" stroke="#47616f" stroke-width="1.6" d="M399.54,-21.45C399.54,-21.45 460.25,-21.45 460.25,-21.45"/>
<polygon fill="#47616f" stroke="#47616f" stroke-width="1.6" points="460.25,-24.08 467.75,-21.45 460.25,-18.83 460.25,-24.08"/>
<text xml:space="preserve" text-anchor="middle" x="471.89" y="-11.95" font-family="Comic Mono" font-size="10.00">new deadline ctx</text>
</g>
<!-- result -->
<g id="node7" class="node">
<title>result</title>
<path fill="#dfd9f2" stroke="#526d7a" stroke-width="1.4" d="M739.3,-39.45C739.3,-39.45 648.64,-39.45 648.64,-39.45 642.64,-39.45 636.64,-33.45 636.64,-27.45 636.64,-27.45 636.64,-15.45 636.64,-15.45 636.64,-9.45 642.64,-3.45 648.64,-3.45 648.64,-3.45 739.3,-3.45 739.3,-3.45 745.3,-3.45 751.3,-9.45 751.3,-15.45 751.3,-15.45 751.3,-27.45 751.3,-27.45 751.3,-33.45 745.3,-39.45 739.3,-39.45"/>
<text xml:space="preserve" text-anchor="middle" x="693.97" y="-17.18" font-family="Comic Mono" font-size="12.00">Product result</text>
</g>
<!-- source2&#45;&gt;result -->
<g id="edge7" class="edge">
<title>source2&#45;&gt;result</title>
<path fill="none" stroke="#47616f" stroke-width="1.6" d="M565.57,-21.45C565.57,-21.45 626.34,-21.45 626.34,-21.45"/>
<polygon fill="#47616f" stroke="#47616f" stroke-width="1.6" points="626.34,-24.08 633.84,-21.45 626.34,-18.83 626.34,-24.08"/>
<text xml:space="preserve" text-anchor="middle" x="614.33" y="-11.95" font-family="Comic Mono" font-size="10.00">success</text>
</g>
</g>
</svg>
