<svg xmlns="http://www.w3.org/2000/svg" viewBox="0 0 1280 920" width="1280" height="920" role="img" aria-labelledby="title desc">
<title id="title">Data codec and cleanup flow</title>
<desc id="desc">Three source-backed example columns for order feed cleanup, invitation codecs, and cache snapshot codecs.</desc>
<defs>
<marker id="blue" viewBox="0 0 10 10" refX="9" refY="5" markerWidth="12" markerHeight="12" orient="auto" markerUnits="userSpaceOnUse"><polygon points="0,0 10,5 0,10" fill="#2563eb" stroke="#2563eb" stroke-dasharray="none" style="stroke-dasharray:none"/></marker>
<marker id="green" viewBox="0 0 10 10" refX="9" refY="5" markerWidth="12" markerHeight="12" orient="auto" markerUnits="userSpaceOnUse"><polygon points="0,0 10,5 0,10" fill="#059669" stroke="#059669" stroke-dasharray="none" style="stroke-dasharray:none"/></marker>
<marker id="orange" viewBox="0 0 10 10" refX="9" refY="5" markerWidth="12" markerHeight="12" orient="auto" markerUnits="userSpaceOnUse"><polygon points="0,0 10,5 0,10" fill="#ea580c" stroke="#ea580c" stroke-dasharray="none" style="stroke-dasharray:none"/></marker>
<marker id="purple" viewBox="0 0 10 10" refX="9" refY="5" markerWidth="12" markerHeight="12" orient="auto" markerUnits="userSpaceOnUse"><polygon points="0,0 10,5 0,10" fill="#7c3aed" stroke="#7c3aed" stroke-dasharray="none" style="stroke-dasharray:none"/></marker>
<marker id="rose" viewBox="0 0 10 10" refX="9" refY="5" markerWidth="12" markerHeight="12" orient="auto" markerUnits="userSpaceOnUse"><polygon points="0,0 10,5 0,10" fill="#e11d48" stroke="#e11d48" stroke-dasharray="none" style="stroke-dasharray:none"/></marker>
</defs>
<style>text{letter-spacing:0}</style>
<rect x="0" y="0" width="1280" height="920" rx="0" fill="#fffdf8" stroke="#fffdf8" stroke-width="0"/>
<rect x="34" y="34" width="1212" height="852" rx="28" fill="#ffffff" stroke="#d8e2ea" stroke-width="2.4"/>
<text x="640" y="74" font-family="Architects Daughter" font-size="34" font-weight="700" fill="#1f3448" text-anchor="middle">Data Codec and Cleanup Flow</text>
<text x="640" y="104" font-family="Comic Mono" font-size="15.5" font-weight="400" fill="#4b6074" text-anchor="middle">Shared README visual for feed normalization, URL-safe value codecs, and versioned compressed cache snapshots.</text>
<rect x="76" y="166" width="340" height="610" rx="24" fill="#eef7f4" stroke="#9fd0bf" stroke-width="2.2"/>
<text x="100" y="204" font-family="Architects Daughter" font-size="25" font-weight="700" fill="#263645" text-anchor="start">Order Feed Cleanup</text>
<rect x="456" y="166" width="340" height="610" rx="24" fill="#f8f2e7" stroke="#d8bd80" stroke-width="2.2"/>
<text x="480" y="204" font-family="Architects Daughter" font-size="25" font-weight="700" fill="#263645" text-anchor="start">Invitation Codecs</text>
<rect x="836" y="166" width="340" height="610" rx="24" fill="#eef4fb" stroke="#9abbe0" stroke-width="2.2"/>
<text x="860" y="204" font-family="Architects Daughter" font-size="25" font-weight="700" fill="#263645" text-anchor="start">Cache Snapshot Codecs</text>
<rect x="106" y="250" width="280" height="116" rx="18" fill="#ffffff" stroke="#74b79b" stroke-width="2.2"/>
<path d="M 124,250 H 368 Q 386,250 386,268 V 292 H 106 V 268 Q 106,250 124,250 Z" fill="#bbf7d0" opacity="0.24"/>
<text x="124" y="279" font-family="Architects Daughter" font-size="20" font-weight="700" fill="#263645" text-anchor="start">Boundary input</text>
<text x="124" y="315" font-family="Comic Mono" font-size="13.5" font-weight="400" fill="#405367" text-anchor="start">partner rows</text>
<text x="124" y="333" font-family="Comic Mono" font-size="13.5" font-weight="400" fill="#405367" text-anchor="start">coupon, notes, line items</text>
<text x="124" y="351" font-family="Comic Mono" font-size="13.5" font-weight="400" fill="#405367" text-anchor="start">tenant/channel/customer</text>
<rect x="106" y="444" width="280" height="128" rx="18" fill="#ffffff" stroke="#c59f5d" stroke-width="2.2"/>
<path d="M 124,444 H 368 Q 386,444 386,462 V 486 H 106 V 462 Q 106,444 124,444 Z" fill="#fde68a" opacity="0.24"/>
<text x="124" y="473" font-family="Architects Daughter" font-size="20" font-weight="700" fill="#263645" text-anchor="start">Normalize rows</text>
<text x="124" y="509" font-family="Comic Mono" font-size="13.5" font-weight="400" fill="#405367" text-anchor="start">core.RequireNotBlank</text>
<text x="124" y="527" font-family="Comic Mono" font-size="13.5" font-weight="400" fill="#405367" text-anchor="start">FilterMap valid items</text>
<text x="124" y="545" font-family="Comic Mono" font-size="13.5" font-weight="400" fill="#405367" text-anchor="start">DistinctBy tags, GroupBy channel</text>
<rect x="106" y="650" width="280" height="110" rx="18" fill="#ffffff" stroke="#6fa3d8" stroke-width="2.2"/>
<path d="M 124,650 H 368 Q 386,650 386,668 V 692 H 106 V 668 Q 106,650 124,650 Z" fill="#bfdbfe" opacity="0.24"/>
<text x="124" y="679" font-family="Architects Daughter" font-size="20" font-weight="700" fill="#263645" text-anchor="start">Domain output</text>
<text x="124" y="715" font-family="Comic Mono" font-size="13.5" font-weight="400" fill="#405367" text-anchor="start">accepted orders</text>
<text x="124" y="733" font-family="Comic Mono" font-size="13.5" font-weight="400" fill="#405367" text-anchor="start">stable tags</text>
<text x="124" y="751" font-family="Comic Mono" font-size="13.5" font-weight="400" fill="#405367" text-anchor="start">orders grouped by channel</text>
<rect x="486" y="250" width="280" height="116" rx="18" fill="#ffffff" stroke="#c59f5d" stroke-width="2.2"/>
<path d="M 504,250 H 748 Q 766,250 766,268 V 292 H 486 V 268 Q 486,250 504,250 Z" fill="#fde68a" opacity="0.24"/>
<text x="504" y="279" font-family="Architects Daughter" font-size="20" font-weight="700" fill="#263645" text-anchor="start">Boundary value</text>
<text x="504" y="315" font-family="Comic Mono" font-size="13.5" font-weight="400" fill="#405367" text-anchor="start">base URL</text>
<text x="504" y="333" font-family="Comic Mono" font-size="13.5" font-weight="400" fill="#405367" text-anchor="start">tenant + redirect</text>
<text x="504" y="351" font-family="Comic Mono" font-size="13.5" font-weight="400" fill="#405367" text-anchor="start">support system + raw id</text>
<rect x="486" y="444" width="280" height="128" rx="18" fill="#ffffff" stroke="#c59f5d" stroke-width="2.2"/>
<path d="M 504,444 H 748 Q 766,444 766,462 V 486 H 486 V 462 Q 486,444 504,444 Z" fill="#fde68a" opacity="0.24"/>
<text x="504" y="473" font-family="Architects Daughter" font-size="20" font-weight="700" fill="#263645" text-anchor="start">Codec selection</text>
<text x="504" y="509" font-family="Comic Mono" font-size="13.5" font-weight="400" fill="#405367" text-anchor="start">Base62 invite token</text>
<text x="504" y="527" font-family="Comic Mono" font-size="13.5" font-weight="400" fill="#405367" text-anchor="start">Base64URL callback state</text>
<text x="504" y="545" font-family="Comic Mono" font-size="13.5" font-weight="400" fill="#405367" text-anchor="start">Hex external reference</text>
<rect x="486" y="650" width="280" height="110" rx="18" fill="#ffffff" stroke="#6fa3d8" stroke-width="2.2"/>
<path d="M 504,650 H 748 Q 766,650 766,668 V 692 H 486 V 668 Q 486,650 504,650 Z" fill="#bfdbfe" opacity="0.24"/>
<text x="504" y="679" font-family="Architects Daughter" font-size="20" font-weight="700" fill="#263645" text-anchor="start">Portable string</text>
<text x="504" y="715" font-family="Comic Mono" font-size="13.5" font-weight="400" fill="#405367" text-anchor="start">URL-safe token</text>
<text x="504" y="733" font-family="Comic Mono" font-size="13.5" font-weight="400" fill="#405367" text-anchor="start">shape-checked callback</text>
<text x="504" y="751" font-family="Comic Mono" font-size="13.5" font-weight="400" fill="#405367" text-anchor="start">readable non-secret ref</text>
<rect x="866" y="250" width="280" height="116" rx="18" fill="#ffffff" stroke="#6fa3d8" stroke-width="2.2"/>
<path d="M 884,250 H 1128 Q 1146,250 1146,268 V 292 H 866 V 268 Q 866,250 884,250 Z" fill="#bfdbfe" opacity="0.24"/>
<text x="884" y="279" font-family="Architects Daughter" font-size="20" font-weight="700" fill="#263645" text-anchor="start">Snapshot value</text>
<text x="884" y="315" font-family="Comic Mono" font-size="13.5" font-weight="400" fill="#405367" text-anchor="start">catalog product records</text>
<text x="884" y="333" font-family="Comic Mono" font-size="13.5" font-weight="400" fill="#405367" text-anchor="start">schema version</text>
<text x="884" y="351" font-family="Comic Mono" font-size="13.5" font-weight="400" fill="#405367" text-anchor="start">created timestamp</text>
<rect x="866" y="444" width="280" height="128" rx="18" fill="#ffffff" stroke="#6fa3d8" stroke-width="2.2"/>
<path d="M 884,444 H 1128 Q 1146,444 1146,462 V 486 H 866 V 462 Q 866,444 884,444 Z" fill="#bfdbfe" opacity="0.24"/>
<text x="884" y="473" font-family="Architects Daughter" font-size="20" font-weight="700" fill="#263645" text-anchor="start">Envelope + compress</text>
<text x="884" y="509" font-family="Comic Mono" font-size="13.5" font-weight="400" fill="#405367" text-anchor="start">JSON VersionedSerializer</text>
<text x="884" y="527" font-family="Comic Mono" font-size="13.5" font-weight="400" fill="#405367" text-anchor="start">gzip compatibility</text>
<text x="884" y="545" font-family="Comic Mono" font-size="13.5" font-weight="400" fill="#405367" text-anchor="start">zstd internal storage</text>
<rect x="866" y="650" width="280" height="110" rx="18" fill="#ffffff" stroke="#6fa3d8" stroke-width="2.2"/>
<path d="M 884,650 H 1128 Q 1146,650 1146,668 V 692 H 866 V 668 Q 866,650 884,650 Z" fill="#bfdbfe" opacity="0.24"/>
<text x="884" y="679" font-family="Architects Daughter" font-size="20" font-weight="700" fill="#263645" text-anchor="start">Cache bytes</text>
<text x="884" y="715" font-family="Comic Mono" font-size="13.5" font-weight="400" fill="#405367" text-anchor="start">algorithm label</text>
<text x="884" y="733" font-family="Comic Mono" font-size="13.5" font-weight="400" fill="#405367" text-anchor="start">compressed payload</text>
<text x="884" y="751" font-family="Comic Mono" font-size="13.5" font-weight="400" fill="#405367" text-anchor="start">stream decompression path</text>
<path d="M 246,366 L 246,444" fill="none" stroke="#ea580c" stroke-width="3.6" stroke-linecap="round" marker-end="url(#orange)"/>
<rect x="206.0" y="389" width="80.0" height="24" rx="11" fill="#fffdf8" stroke="#ea580c" stroke-width="1.2"/>
<text x="246" y="406" font-family="Comic Mono" font-size="12.5" font-weight="400" fill="#ea580c" text-anchor="middle">validate</text>
<path d="M 246,572 L 246,650" fill="none" stroke="#ea580c" stroke-width="3.6" stroke-linecap="round" marker-end="url(#orange)"/>
<rect x="217.25" y="595" width="57.5" height="24" rx="11" fill="#fffdf8" stroke="#ea580c" stroke-width="1.2"/>
<text x="246" y="612" font-family="Comic Mono" font-size="12.5" font-weight="400" fill="#ea580c" text-anchor="middle">clean</text>
<path d="M 626,366 L 626,444" fill="none" stroke="#ea580c" stroke-width="3.6" stroke-linecap="round" marker-end="url(#orange)"/>
<rect x="593.5" y="389" width="65.0" height="24" rx="11" fill="#fffdf8" stroke="#ea580c" stroke-width="1.2"/>
<text x="626" y="406" font-family="Comic Mono" font-size="12.5" font-weight="400" fill="#ea580c" text-anchor="middle">encode</text>
<path d="M 626,572 L 626,650" fill="none" stroke="#ea580c" stroke-width="3.6" stroke-linecap="round" marker-end="url(#orange)"/>
<rect x="593.5" y="595" width="65.0" height="24" rx="11" fill="#fffdf8" stroke="#ea580c" stroke-width="1.2"/>
<text x="626" y="612" font-family="Comic Mono" font-size="12.5" font-weight="400" fill="#ea580c" text-anchor="middle">decode</text>
<path d="M 1006,366 L 1006,444" fill="none" stroke="#7c3aed" stroke-width="3.6" stroke-linecap="round" marker-end="url(#purple)"/>
<rect x="962.25" y="389" width="87.5" height="24" rx="11" fill="#fffdf8" stroke="#7c3aed" stroke-width="1.2"/>
<text x="1006" y="406" font-family="Comic Mono" font-size="12.5" font-weight="400" fill="#7c3aed" text-anchor="middle">serialize</text>
<path d="M 1006,572 L 1006,650" fill="none" stroke="#7c3aed" stroke-width="3.6" stroke-linecap="round" marker-end="url(#purple)"/>
<rect x="966.0" y="595" width="80.0" height="24" rx="11" fill="#fffdf8" stroke="#7c3aed" stroke-width="1.2"/>
<text x="1006" y="612" font-family="Comic Mono" font-size="12.5" font-weight="400" fill="#7c3aed" text-anchor="middle">compress</text>
<rect x="178" y="790" width="924" height="50" rx="18" fill="#fff7ed" stroke="#f0b27a" stroke-width="1.6"/>
<text x="640" y="821" font-family="Comic Mono" font-size="13.5" font-weight="400" fill="#52677c" text-anchor="middle">Explicit failure tests: missing customer/items, malformed callback state, corrupt compressed bytes, corrupt serialized payloads.</text>
<path d="M 246,760 L 246,790" fill="none" stroke="#e11d48" stroke-width="2.8" stroke-linecap="round" marker-end="url(#rose)" stroke-dasharray="7 5"/>
<path d="M 626,760 L 626,790" fill="none" stroke="#e11d48" stroke-width="2.8" stroke-linecap="round" marker-end="url(#rose)" stroke-dasharray="7 5"/>
<path d="M 1006,760 L 1006,790" fill="none" stroke="#e11d48" stroke-width="2.8" stroke-linecap="round" marker-end="url(#rose)" stroke-dasharray="7 5"/>
<rect x="154" y="122" width="972" height="34" rx="15" fill="#f8fafc" stroke="#cad7e2" stroke-width="1.3"/>
<text x="640" y="145" font-family="Comic Mono" font-size="13" font-weight="400" fill="#52677c" text-anchor="middle">Toolkit boundary: core + collections for cleanup, codec for transport-safe values, serialization + compression for cache snapshots</text>
</svg>