<?xml version="1.0" encoding="UTF-8" standalone="no"?>
<!DOCTYPE svg PUBLIC "-//W3C//DTD SVG 1.1//EN"
 "http://www.w3.org/Graphics/SVG/1.1/DTD/svg11.dtd">
<!-- Generated by graphviz version 15.0.0 (20260523.1842)
 -->
<!-- Title: G Pages: 1 -->
<svg width="1231pt" height="149pt"
 viewBox="14.00 14.00 1217.00 134.00" xmlns="http://www.w3.org/2000/svg" xmlns:xlink="http://www.w3.org/1999/xlink">
<g id="graph0" class="graph" transform="scale(1 1) rotate(0) translate(18.4 130.4)">
<title>G</title>
<polygon fill="#fbfaf6" stroke="none" points="-4,4 -4,-116 1198.5,-116 1198.5,4 -4,4"/>
<!-- client -->
<g id="node1" class="node">
<title>client</title>
<path fill="#d7ecf2" stroke="#48758d" d="M49,-58C49,-58 12,-58 12,-58 6,-58 0,-52 0,-46 0,-46 0,-34 0,-34 0,-28 6,-22 12,-22 12,-22 49,-22 49,-22 55,-22 61,-28 61,-34 61,-34 61,-46 61,-46 61,-52 55,-58 49,-58"/>
<text xml:space="preserve" text-anchor="middle" x="30.5" y="-35.65" font-family="Architects Daughter" font-size="18.00">Client</text>
</g>
<!-- handler -->
<g id="node2" class="node">
<title>handler</title>
<path fill="#f7e5aa" stroke="#b99b5d" d="M248,-112C248,-112 163,-112 163,-112 157,-112 151,-106 151,-100 151,-100 151,-88 151,-88 151,-82 157,-76 163,-76 163,-76 248,-76 248,-76 254,-76 260,-82 260,-88 260,-88 260,-100 260,-100 260,-106 254,-112 248,-112"/>
<text xml:space="preserve" text-anchor="middle" x="205.5" y="-89.65" font-family="Architects Daughter" font-size="18.00">Gin Handler</text>
</g>
<!-- client&#45;&gt;handler -->
<g id="edge1" class="edge">
<title>client&#45;&gt;handler</title>
<path fill="none" stroke="#47616f" stroke-width="2" d="M61.24,-49.28C82.42,-55.9 111.74,-65.05 138.33,-73.35"/>
<polygon fill="#47616f" stroke="#47616f" stroke-width="2" points="137.24,-76.67 147.83,-76.31 139.33,-69.99 137.24,-76.67"/>
<text xml:space="preserve" text-anchor="middle" x="106" y="-69.3" font-family="Comic Mono" font-size="11.00" fill="#35505f">POST</text>
</g>
<!-- steps -->
<g id="node3" class="node">
<title>steps</title>
<path fill="#dbe8d4" stroke="#5d8a62" d="M593.25,-112C593.25,-112 470,-112 470,-112 464,-112 458,-106 458,-100 458,-100 458,-88 458,-88 458,-82 464,-76 470,-76 470,-76 593.25,-76 593.25,-76 599.25,-76 605.25,-82 605.25,-88 605.25,-88 605.25,-100 605.25,-100 605.25,-106 599.25,-112 593.25,-112"/>
<text xml:space="preserve" text-anchor="middle" x="531.62" y="-89.65" font-family="Architects Daughter" font-size="18.00">Checklist Steps</text>
</g>
<!-- handler&#45;&gt;steps -->
<g id="edge2" class="edge">
<title>handler&#45;&gt;steps</title>
<path fill="none" stroke="#47616f" stroke-width="2" d="M260.39,-94C310.59,-94 386.29,-94 444.81,-94"/>
<polygon fill="#47616f" stroke="#47616f" stroke-width="2" points="444.75,-97.5 454.75,-94 444.75,-90.5 444.75,-97.5"/>
<text xml:space="preserve" text-anchor="middle" x="359" y="-96.3" font-family="Comic Mono" font-size="11.00" fill="#35505f">run until policy stops</text>
</g>
<!-- aggregate -->
<g id="node4" class="node">
<title>aggregate</title>
<path fill="#eadcf5" stroke="#8a6bb0" d="M859.75,-112C859.75,-112 725.25,-112 725.25,-112 719.25,-112 713.25,-106 713.25,-100 713.25,-100 713.25,-88 713.25,-88 713.25,-82 719.25,-76 725.25,-76 725.25,-76 859.75,-76 859.75,-76 865.75,-76 871.75,-82 871.75,-88 871.75,-88 871.75,-100 871.75,-100 871.75,-106 865.75,-112 859.75,-112"/>
<text xml:space="preserve" text-anchor="middle" x="792.5" y="-89.65" font-family="Architects Daughter" font-size="18.00">Aggregate(policy)</text>
</g>
<!-- steps&#45;&gt;aggregate -->
<g id="edge3" class="edge">
<title>steps&#45;&gt;aggregate</title>
<path fill="none" stroke="#47616f" stroke-width="2" d="M605.43,-94C634.87,-94 669.18,-94 700.26,-94"/>
<polygon fill="#47616f" stroke="#47616f" stroke-width="2" points="699.88,-97.5 709.88,-94 699.88,-90.5 699.88,-97.5"/>
<text xml:space="preserve" text-anchor="middle" x="659.25" y="-96.3" font-family="Comic Mono" font-size="11.00" fill="#35505f">reports</text>
</g>
<!-- mapper -->
<g id="node5" class="node">
<title>mapper</title>
<path fill="#efe7d2" stroke="#a78335" d="M1182.5,-58C1182.5,-58 1015.75,-58 1015.75,-58 1009.75,-58 1003.75,-52 1003.75,-46 1003.75,-46 1003.75,-34 1003.75,-34 1003.75,-28 1009.75,-22 1015.75,-22 1015.75,-22 1182.5,-22 1182.5,-22 1188.5,-22 1194.5,-28 1194.5,-34 1194.5,-34 1194.5,-46 1194.5,-46 1194.5,-52 1188.5,-58 1182.5,-58"/>
<text xml:space="preserve" text-anchor="middle" x="1099.12" y="-35.65" font-family="Architects Daughter" font-size="18.00">Project + summarize</text>
</g>
<!-- aggregate&#45;&gt;mapper -->
<g id="edge4" class="edge">
<title>aggregate&#45;&gt;mapper</title>
<path fill="none" stroke="#47616f" stroke-width="2" d="M871.95,-80.09C908.06,-73.69 951.48,-66 990.58,-59.06"/>
<polygon fill="#47616f" stroke="#47616f" stroke-width="2" points="991.16,-62.52 1000.4,-57.32 989.94,-55.62 991.16,-62.52"/>
<text xml:space="preserve" text-anchor="middle" x="937.75" y="-75.72" font-family="Comic Mono" font-size="11.00" fill="#35505f">root status</text>
</g>
<!-- mapper&#45;&gt;client -->
<g id="edge5" class="edge">
<title>mapper&#45;&gt;client</title>
<path fill="none" stroke="#47616f" stroke-width="2" d="M1005.89,-21.52C945.69,-11.04 865.24,0 793.5,0 204.5,0 204.5,0 204.5,0 158.79,0 107.99,-13.42 73.33,-24.72"/>
<polygon fill="#47616f" stroke="#47616f" stroke-width="2" points="72.56,-21.28 64.2,-27.79 74.79,-27.92 72.56,-21.28"/>
<text xml:space="preserve" text-anchor="middle" x="531.62" y="-2.3" font-family="Comic Mono" font-size="11.00" fill="#35505f">stable JSON</text>
</g>
</g>
</svg>
