<?xml version="1.0" encoding="UTF-8" standalone="no"?>
<!DOCTYPE svg PUBLIC "-//W3C//DTD SVG 1.1//EN"
 "http://www.w3.org/Graphics/SVG/1.1/DTD/svg11.dtd">
<!-- Generated by graphviz version 15.0.0 (20260523.1842)
 -->
<!-- Title: G Pages: 1 -->
<svg width="805pt" height="305pt"
 viewBox="14.00 14.00 790.00 291.00" xmlns="http://www.w3.org/2000/svg" xmlns:xlink="http://www.w3.org/1999/xlink">
<g id="graph0" class="graph" transform="scale(1 1) rotate(0) translate(18.4 286.9)">
<title>G</title>
<polygon fill="#fbfaf6" stroke="none" points="-4,4 -4,-272.5 771.75,-272.5 771.75,4 -4,4"/>
<!-- draft -->
<g id="node1" class="node">
<title>draft</title>
<path fill="#d7ecf2" stroke="#48758d" d="M52.75,-36C52.75,-36 12,-36 12,-36 6,-36 0,-30 0,-24 0,-24 0,-12 0,-12 0,-6 6,0 12,0 12,0 52.75,0 52.75,0 58.75,0 64.75,-6 64.75,-12 64.75,-12 64.75,-24 64.75,-24 64.75,-30 58.75,-36 52.75,-36"/>
<text xml:space="preserve" text-anchor="middle" x="32.38" y="-13.65" font-family="Architects Daughter" font-size="18.00">Draft</text>
</g>
<!-- submitted -->
<g id="node2" class="node">
<title>submitted</title>
<path fill="#f7e5aa" stroke="#b99b5d" d="M243.75,-116C243.75,-116 170.75,-116 170.75,-116 164.75,-116 158.75,-110 158.75,-104 158.75,-104 158.75,-92 158.75,-92 158.75,-86 164.75,-80 170.75,-80 170.75,-80 243.75,-80 243.75,-80 249.75,-80 255.75,-86 255.75,-92 255.75,-92 255.75,-104 255.75,-104 255.75,-110 249.75,-116 243.75,-116"/>
<text xml:space="preserve" text-anchor="middle" x="207.25" y="-93.65" font-family="Architects Daughter" font-size="18.00">Submitted</text>
</g>
<!-- draft&#45;&gt;submitted -->
<g id="edge1" class="edge">
<title>draft&#45;&gt;submitted</title>
<path fill="none" stroke="#47616f" stroke-width="2" d="M65.08,-32.67C90.18,-44.29 125.75,-60.75 154.9,-74.24"/>
<polygon fill="#47616f" stroke="#47616f" stroke-width="2" points="153.25,-77.33 163.79,-78.35 156.19,-70.98 153.25,-77.33"/>
<text xml:space="preserve" text-anchor="middle" x="111.75" y="-62.7" font-family="Comic Mono" font-size="11.00" fill="#35505f">submit</text>
</g>
<!-- cancelled -->
<g id="node6" class="node">
<title>cancelled</title>
<path fill="#f5d3df" stroke="#b95f7a" d="M596.25,-127.5C596.25,-127.5 527.75,-127.5 527.75,-127.5 521.75,-127.5 515.75,-121.5 515.75,-115.5 515.75,-115.5 515.75,-80.5 515.75,-80.5 515.75,-74.5 521.75,-68.5 527.75,-68.5 527.75,-68.5 596.25,-68.5 596.25,-68.5 602.25,-68.5 608.25,-74.5 608.25,-80.5 608.25,-80.5 608.25,-115.5 608.25,-115.5 608.25,-121.5 602.25,-127.5 596.25,-127.5"/>
<text xml:space="preserve" text-anchor="middle" x="562" y="-106.4" font-family="Architects Daughter" font-size="18.00">Cancelled</text>
<text xml:space="preserve" text-anchor="middle" x="562" y="-80.9" font-family="Architects Daughter" font-size="18.00">final</text>
</g>
<!-- draft&#45;&gt;cancelled -->
<g id="edge5" class="edge">
<title>draft&#45;&gt;cancelled</title>
<path fill="none" stroke="#b95f7a" stroke-width="2" d="M65.19,-22.82C151.56,-35.92 391.37,-72.28 502.75,-89.17"/>
<polygon fill="#b95f7a" stroke="#b95f7a" stroke-width="2" points="501.96,-92.59 512.37,-90.63 503.01,-85.67 501.96,-92.59"/>
<text xml:space="preserve" text-anchor="middle" x="311.75" y="-65.82" font-family="Comic Mono" font-size="11.00" fill="#8d4c63">cancel</text>
</g>
<!-- paid -->
<g id="node3" class="node">
<title>paid</title>
<path fill="#dbe8d4" stroke="#5d8a62" d="M409.75,-194C409.75,-194 379.75,-194 379.75,-194 373.75,-194 367.75,-188 367.75,-182 367.75,-182 367.75,-170 367.75,-170 367.75,-164 373.75,-158 379.75,-158 379.75,-158 409.75,-158 409.75,-158 415.75,-158 421.75,-164 421.75,-170 421.75,-170 421.75,-182 421.75,-182 421.75,-188 415.75,-194 409.75,-194"/>
<text xml:space="preserve" text-anchor="middle" x="394.75" y="-171.65" font-family="Architects Daughter" font-size="18.00">Paid</text>
</g>
<!-- submitted&#45;&gt;paid -->
<g id="edge2" class="edge">
<title>submitted&#45;&gt;paid</title>
<path fill="none" stroke="#47616f" stroke-width="2" d="M252.21,-116.48C283.66,-129.71 325.58,-147.33 355.62,-159.97"/>
<polygon fill="#47616f" stroke="#47616f" stroke-width="2" points="353.93,-163.05 364.51,-163.7 356.65,-156.6 353.93,-163.05"/>
<text xml:space="preserve" text-anchor="middle" x="311.75" y="-153.07" font-family="Comic Mono" font-size="11.00" fill="#35505f">pay guard</text>
</g>
<!-- submitted&#45;&gt;cancelled -->
<g id="edge6" class="edge">
<title>submitted&#45;&gt;cancelled</title>
<path fill="none" stroke="#b95f7a" stroke-width="2" d="M256.19,-98C320.25,-98 433.69,-98 502.65,-98"/>
<polygon fill="#b95f7a" stroke="#b95f7a" stroke-width="2" points="502.38,-101.5 512.38,-98 502.38,-94.5 502.38,-101.5"/>
<text xml:space="preserve" text-anchor="middle" x="394.75" y="-100.3" font-family="Comic Mono" font-size="11.00" fill="#8d4c63">cancel</text>
</g>
<!-- packed -->
<g id="node4" class="node">
<title>packed</title>
<path fill="#eadcf5" stroke="#8a6bb0" d="M588.75,-257C588.75,-257 535.25,-257 535.25,-257 529.25,-257 523.25,-251 523.25,-245 523.25,-245 523.25,-233 523.25,-233 523.25,-227 529.25,-221 535.25,-221 535.25,-221 588.75,-221 588.75,-221 594.75,-221 600.75,-227 600.75,-233 600.75,-233 600.75,-245 600.75,-245 600.75,-251 594.75,-257 588.75,-257"/>
<text xml:space="preserve" text-anchor="middle" x="562" y="-234.65" font-family="Architects Daughter" font-size="18.00">Packed</text>
</g>
<!-- paid&#45;&gt;packed -->
<g id="edge3" class="edge">
<title>paid&#45;&gt;packed</title>
<path fill="none" stroke="#47616f" stroke-width="2" d="M421.93,-185.98C445.74,-195.06 481.53,-208.7 510.84,-219.88"/>
<polygon fill="#47616f" stroke="#47616f" stroke-width="2" points="509.53,-223.12 520.12,-223.42 512.02,-216.58 509.53,-223.12"/>
<text xml:space="preserve" text-anchor="middle" x="468.75" y="-211.69" font-family="Comic Mono" font-size="11.00" fill="#35505f">pack</text>
</g>
<!-- paid&#45;&gt;cancelled -->
<g id="edge7" class="edge">
<title>paid&#45;&gt;cancelled</title>
<path fill="none" stroke="#b95f7a" stroke-width="2" d="M421.93,-163.64C443.83,-153.3 475.86,-138.19 503.67,-125.06"/>
<polygon fill="#b95f7a" stroke="#b95f7a" stroke-width="2" points="504.99,-128.31 512.54,-120.87 502.01,-121.98 504.99,-128.31"/>
<text xml:space="preserve" text-anchor="middle" x="468.75" y="-150.84" font-family="Comic Mono" font-size="11.00" fill="#8d4c63">cancel</text>
</g>
<!-- shipped -->
<g id="node5" class="node">
<title>shipped</title>
<path fill="#edf1e9" stroke="#5d8a62" d="M755.75,-268.5C755.75,-268.5 702.25,-268.5 702.25,-268.5 696.25,-268.5 690.25,-262.5 690.25,-256.5 690.25,-256.5 690.25,-221.5 690.25,-221.5 690.25,-215.5 696.25,-209.5 702.25,-209.5 702.25,-209.5 755.75,-209.5 755.75,-209.5 761.75,-209.5 767.75,-215.5 767.75,-221.5 767.75,-221.5 767.75,-256.5 767.75,-256.5 767.75,-262.5 761.75,-268.5 755.75,-268.5"/>
<text xml:space="preserve" text-anchor="middle" x="729" y="-247.4" font-family="Architects Daughter" font-size="18.00">Shipped</text>
<text xml:space="preserve" text-anchor="middle" x="729" y="-221.9" font-family="Architects Daughter" font-size="18.00">final</text>
</g>
<!-- packed&#45;&gt;shipped -->
<g id="edge4" class="edge">
<title>packed&#45;&gt;shipped</title>
<path fill="none" stroke="#47616f" stroke-width="2" d="M600.85,-239C623.44,-239 652.4,-239 676.98,-239"/>
<polygon fill="#47616f" stroke="#47616f" stroke-width="2" points="676.72,-242.5 686.72,-239 676.72,-235.5 676.72,-242.5"/>
<text xml:space="preserve" text-anchor="middle" x="649.25" y="-241.3" font-family="Comic Mono" font-size="11.00" fill="#35505f">ship</text>
</g>
</g>
</svg>
