<?xml version="1.0" encoding="UTF-8" standalone="no"?>
<!DOCTYPE svg PUBLIC "-//W3C//DTD SVG 1.1//EN"
 "http://www.w3.org/Graphics/SVG/1.1/DTD/svg11.dtd">
<!-- Generated by graphviz version 15.0.0 (20260523.1842)
 -->
<!-- Title: G Pages: 1 -->
<svg width="2319pt" height="171pt"
 viewBox="13.00 13.00 2306.00 158.00" xmlns="http://www.w3.org/2000/svg" xmlns:xlink="http://www.w3.org/1999/xlink">
<g id="graph0" class="graph" transform="scale(1 1) rotate(0) translate(25.92 144.95)">
<title>G</title>
<polygon fill="#fffdf8" stroke="none" points="-12.96,12.96 -12.96,-131.99 2279.82,-131.99 2279.82,12.96 -12.96,12.96"/>
<text xml:space="preserve" text-anchor="middle" x="1133.43" y="-86.53" font-family="Architects Daughter" font-size="30.00">Retry Dead&#45;Letter Batch Worker Scenario</text>
<!-- queue -->
<g id="node1" class="node">
<title>queue</title>
<path fill="#fef3c7" stroke="#b99b5d" stroke-width="2" d="M190.17,-68.28C190.17,-68.28 12,-68.28 12,-68.28 6,-68.28 0,-62.28 0,-56.28 0,-56.28 0,-12 0,-12 0,-6 6,0 12,0 12,0 190.17,0 190.17,0 196.17,0 202.17,-6 202.17,-12 202.17,-12 202.17,-56.28 202.17,-56.28 202.17,-62.28 196.17,-68.28 190.17,-68.28"/>
<text xml:space="preserve" text-anchor="middle" x="101.09" y="-42.54" font-family="Architects Daughter" font-size="18.00" fill="#263645">ticket queue</text>
<text xml:space="preserve" text-anchor="middle" x="101.09" y="-17.04" font-family="Architects Daughter" font-size="18.00" fill="#263645">4 deterministic items</text>
</g>
<!-- success -->
<g id="node2" class="node">
<title>success</title>
<path fill="#dcfce7" stroke="#5d8a62" stroke-width="2" d="M419.34,-68.28C419.34,-68.28 301.17,-68.28 301.17,-68.28 295.17,-68.28 289.17,-62.28 289.17,-56.28 289.17,-56.28 289.17,-12 289.17,-12 289.17,-6 295.17,0 301.17,0 301.17,0 419.34,0 419.34,0 425.34,0 431.34,-6 431.34,-12 431.34,-12 431.34,-56.28 431.34,-56.28 431.34,-62.28 425.34,-68.28 419.34,-68.28"/>
<text xml:space="preserve" text-anchor="middle" x="360.25" y="-42.54" font-family="Architects Daughter" font-size="18.00" fill="#263645">ticket&#45;1001</text>
<text xml:space="preserve" text-anchor="middle" x="360.25" y="-17.04" font-family="Architects Daughter" font-size="18.00" fill="#263645">success once</text>
</g>
<!-- queue&#45;&gt;success -->
<g id="edge1" class="edge">
<title>queue&#45;&gt;success</title>
<path fill="none" stroke="black" stroke-width="2.6" d="M202.99,-34.14C227.42,-34.14 253.26,-34.14 276.74,-34.14"/>
<polygon fill="black" stroke="black" stroke-width="2.6" points="276.48,-36.94 284.48,-34.14 276.48,-31.34 276.48,-36.94"/>
<text xml:space="preserve" text-anchor="middle" x="245.67" y="-36.99" font-family="Comic Mono" font-size="12.00" fill="#425466">read</text>
</g>
<!-- transient -->
<g id="node3" class="node">
<title>transient</title>
<path fill="#dbeafe" stroke="#4f7e9d" stroke-width="2" d="M660.51,-68.28C660.51,-68.28 537.09,-68.28 537.09,-68.28 531.09,-68.28 525.09,-62.28 525.09,-56.28 525.09,-56.28 525.09,-12 525.09,-12 525.09,-6 531.09,0 537.09,0 537.09,0 660.51,0 660.51,0 666.51,0 672.51,-6 672.51,-12 672.51,-12 672.51,-56.28 672.51,-56.28 672.51,-62.28 666.51,-68.28 660.51,-68.28"/>
<text xml:space="preserve" text-anchor="middle" x="598.8" y="-42.54" font-family="Architects Daughter" font-size="18.00" fill="#263645">ticket&#45;1002</text>
<text xml:space="preserve" text-anchor="middle" x="598.8" y="-17.04" font-family="Architects Daughter" font-size="18.00" fill="#263645">transient once</text>
</g>
<!-- success&#45;&gt;transient -->
<g id="edge2" class="edge">
<title>success&#45;&gt;transient</title>
<path fill="none" stroke="#5d8a62" stroke-width="2.6" d="M432.23,-34.14C457.48,-34.14 486.18,-34.14 512.51,-34.14"/>
<polygon fill="#5d8a62" stroke="#5d8a62" stroke-width="2.6" points="512.48,-36.94 520.48,-34.14 512.48,-31.34 512.48,-36.94"/>
<text xml:space="preserve" text-anchor="middle" x="478.21" y="-36.99" font-family="Comic Mono" font-size="12.00" fill="#425466">write</text>
</g>
<!-- retry -->
<g id="node4" class="node">
<title>retry</title>
<path fill="#e0f2fe" stroke="#48758d" stroke-width="2" d="M987.18,-68.28C987.18,-68.28 866.01,-68.28 866.01,-68.28 860.01,-68.28 854.01,-62.28 854.01,-56.28 854.01,-56.28 854.01,-12 854.01,-12 854.01,-6 860.01,0 866.01,0 866.01,0 987.18,0 987.18,0 993.18,0 999.18,-6 999.18,-12 999.18,-12 999.18,-56.28 999.18,-56.28 999.18,-62.28 993.18,-68.28 987.18,-68.28"/>
<text xml:space="preserve" text-anchor="middle" x="926.6" y="-42.54" font-family="Architects Daughter" font-size="18.00" fill="#263645">retry attempt</text>
<text xml:space="preserve" text-anchor="middle" x="926.6" y="-17.04" font-family="Architects Daughter" font-size="18.00" fill="#263645">succeeds</text>
</g>
<!-- transient&#45;&gt;retry -->
<g id="edge3" class="edge">
<title>transient&#45;&gt;retry</title>
<path fill="none" stroke="#48758d" stroke-width="2.6" d="M673.32,-34.14C723.2,-34.14 789.28,-34.14 841.3,-34.14"/>
<polygon fill="#48758d" stroke="#48758d" stroke-width="2.6" points="841.25,-36.94 849.25,-34.14 841.25,-31.34 841.25,-36.94"/>
<text xml:space="preserve" text-anchor="middle" x="763.26" y="-36.99" font-family="Comic Mono" font-size="12.00" fill="#425466">ErrTransientTicket</text>
</g>
<!-- permanent -->
<g id="node5" class="node">
<title>permanent</title>
<path fill="#fee2e2" stroke="#bf6672" stroke-width="2" d="M1243.35,-68.28C1243.35,-68.28 1104.93,-68.28 1104.93,-68.28 1098.93,-68.28 1092.93,-62.28 1092.93,-56.28 1092.93,-56.28 1092.93,-12 1092.93,-12 1092.93,-6 1098.93,0 1104.93,0 1104.93,0 1243.35,0 1243.35,0 1249.35,0 1255.35,-6 1255.35,-12 1255.35,-12 1255.35,-56.28 1255.35,-56.28 1255.35,-62.28 1249.35,-68.28 1243.35,-68.28"/>
<text xml:space="preserve" text-anchor="middle" x="1174.14" y="-42.54" font-family="Architects Daughter" font-size="18.00" fill="#263645">ticket&#45;1003</text>
<text xml:space="preserve" text-anchor="middle" x="1174.14" y="-17.04" font-family="Architects Daughter" font-size="18.00" fill="#263645">blocked address</text>
</g>
<!-- retry&#45;&gt;permanent -->
<g id="edge4" class="edge">
<title>retry&#45;&gt;permanent</title>
<path fill="none" stroke="#5d8a62" stroke-width="2.6" d="M999.94,-34.14C1025.2,-34.14 1053.91,-34.14 1080.59,-34.14"/>
<polygon fill="#5d8a62" stroke="#5d8a62" stroke-width="2.6" points="1080.35,-36.94 1088.35,-34.14 1080.35,-31.34 1080.35,-36.94"/>
<text xml:space="preserve" text-anchor="middle" x="1046.06" y="-36.99" font-family="Comic Mono" font-size="12.00" fill="#425466">write</text>
</g>
<!-- dlt -->
<g id="node6" class="node">
<title>dlt</title>
<path fill="#ffe4e6" stroke="#b95f7a" stroke-width="2" d="M1606.77,-68.28C1606.77,-68.28 1448.85,-68.28 1448.85,-68.28 1442.85,-68.28 1436.85,-62.28 1436.85,-56.28 1436.85,-56.28 1436.85,-12 1436.85,-12 1436.85,-6 1442.85,0 1448.85,0 1448.85,0 1606.77,0 1606.77,0 1612.77,0 1618.77,-6 1618.77,-12 1618.77,-12 1618.77,-56.28 1618.77,-56.28 1618.77,-62.28 1612.77,-68.28 1606.77,-68.28"/>
<text xml:space="preserve" text-anchor="middle" x="1527.81" y="-42.54" font-family="Architects Daughter" font-size="18.00" fill="#263645">dead letter</text>
<text xml:space="preserve" text-anchor="middle" x="1527.81" y="-17.04" font-family="Architects Daughter" font-size="18.00" fill="#263645">reason + attempts</text>
</g>
<!-- permanent&#45;&gt;dlt -->
<g id="edge5" class="edge">
<title>permanent&#45;&gt;dlt</title>
<path fill="none" stroke="#b95f7a" stroke-width="2.6" d="M1256.26,-34.14C1306.14,-34.14 1370.52,-34.14 1423.96,-34.14"/>
<polygon fill="#b95f7a" stroke="#b95f7a" stroke-width="2.6" points="1423.95,-36.94 1431.95,-34.14 1423.95,-31.34 1423.95,-36.94"/>
<text xml:space="preserve" text-anchor="middle" x="1346.1" y="-36.99" font-family="Comic Mono" font-size="12.00" fill="#425466">ErrPermanentTicket</text>
</g>
<!-- final -->
<g id="node7" class="node">
<title>final</title>
<path fill="#dcfce7" stroke="#5d8a62" stroke-width="2" d="M1869.69,-68.28C1869.69,-68.28 1751.52,-68.28 1751.52,-68.28 1745.52,-68.28 1739.52,-62.28 1739.52,-56.28 1739.52,-56.28 1739.52,-12 1739.52,-12 1739.52,-6 1745.52,0 1751.52,0 1751.52,0 1869.69,0 1869.69,0 1875.69,0 1881.69,-6 1881.69,-12 1881.69,-12 1881.69,-56.28 1881.69,-56.28 1881.69,-62.28 1875.69,-68.28 1869.69,-68.28"/>
<text xml:space="preserve" text-anchor="middle" x="1810.61" y="-42.54" font-family="Architects Daughter" font-size="18.00" fill="#263645">ticket&#45;1004</text>
<text xml:space="preserve" text-anchor="middle" x="1810.61" y="-17.04" font-family="Architects Daughter" font-size="18.00" fill="#263645">success once</text>
</g>
<!-- dlt&#45;&gt;final -->
<g id="edge6" class="edge">
<title>dlt&#45;&gt;final</title>
<path fill="none" stroke="#b95f7a" stroke-width="2.6" d="M1619.59,-34.14C1654.13,-34.14 1693.27,-34.14 1727.02,-34.14"/>
<polygon fill="#b95f7a" stroke="#b95f7a" stroke-width="2.6" points="1726.78,-36.94 1734.78,-34.14 1726.78,-31.34 1726.78,-36.94"/>
<text xml:space="preserve" text-anchor="middle" x="1679.15" y="-36.99" font-family="Comic Mono" font-size="12.00" fill="#425466">skip item</text>
</g>
<!-- report -->
<g id="node8" class="node">
<title>report</title>
<path fill="#ede9fe" stroke="#8a6bb0" stroke-width="2" d="M2254.86,-68.28C2254.86,-68.28 2007.69,-68.28 2007.69,-68.28 2001.69,-68.28 1995.69,-62.28 1995.69,-56.28 1995.69,-56.28 1995.69,-12 1995.69,-12 1995.69,-6 2001.69,0 2007.69,0 2007.69,0 2254.86,0 2254.86,0 2260.86,0 2266.86,-6 2266.86,-12 2266.86,-12 2266.86,-56.28 2266.86,-56.28 2266.86,-62.28 2260.86,-68.28 2254.86,-68.28"/>
<text xml:space="preserve" text-anchor="middle" x="2131.28" y="-42.54" font-family="Architects Daughter" font-size="18.00" fill="#263645">batch report</text>
<text xml:space="preserve" text-anchor="middle" x="2131.28" y="-17.04" font-family="Architects Daughter" font-size="18.00" fill="#263645">read=4 write=3 retry=1 skip=1</text>
</g>
<!-- final&#45;&gt;report -->
<g id="edge7" class="edge">
<title>final&#45;&gt;report</title>
<path fill="none" stroke="#8a6bb0" stroke-width="2.6" d="M1882.33,-34.14C1912.15,-34.14 1948.04,-34.14 1983.13,-34.14"/>
<polygon fill="#8a6bb0" stroke="#8a6bb0" stroke-width="2.6" points="1983.06,-36.94 1991.06,-34.14 1983.06,-31.34 1983.06,-36.94"/>
<text xml:space="preserve" text-anchor="middle" x="1938.69" y="-36.99" font-family="Comic Mono" font-size="12.00" fill="#425466">complete</text>
</g>
</g>
</svg>
