<?xml version="1.0" encoding="UTF-8"?>
<svg xmlns="http://www.w3.org/2000/svg" width="1800" height="1080" viewBox="0 0 1800 1080" role="img" aria-labelledby="title desc">
  <title id="title">S3 SQS DynamoDB document workflow architecture</title>
  <desc id="desc">DocumentWorkflow owns S3 object keys, SQS event shape, and DynamoDB idempotent processing records while AWS SDK clients and Floci resources stay caller-owned.</desc>
  <defs>
    <style>
      @import url('https://fonts.googleapis.com/css2?family=Architects+Daughter&amp;family=Comic+Mono:wght@400;700&amp;display=swap');
      .title{font-family:'Architects Daughter','Comic Mono',sans-serif;font-size:48px;fill:#172033}
      .subtitle,.label,.small,.footer{font-family:'Comic Mono','Architects Daughter',monospace;fill:#4b5568}
      .subtitle{font-size:21px}.label{font-size:24px}.small{font-size:18px}.footer{font-size:18px}
      .app{fill:#eef6ff;stroke:#b8d5ff;stroke-width:3}.workflow{fill:#ecfdf5;stroke:#86efac;stroke-width:3}
      .aws{fill:#fff7ed;stroke:#fed7aa;stroke-width:3}.card{fill:#fff;stroke:#cbd5e1;stroke-width:3}
      .blue{fill:#dbeafe;stroke:#93c5fd;stroke-width:3}.green{fill:#dcfce7;stroke:#22c55e;stroke-width:3}
      .yellow{fill:#fef3c7;stroke:#f59e0b;stroke-width:3}.purple{fill:#f3e8ff;stroke:#c084fc;stroke-width:3}
      .red{fill:#fee2e2;stroke:#f87171;stroke-width:3}.arrow{fill:none;stroke-linecap:round;stroke-linejoin:round;stroke-width:5}
    </style>
    <marker id="arrow-blue" viewBox="0 0 10 10" markerWidth="14" markerHeight="14" refX="9" refY="5" orient="auto" markerUnits="userSpaceOnUse">
      <path d="M 0 0 L 10 5 L 0 10 Z" fill="#2563eb" stroke="#2563eb" stroke-dasharray="none" style="stroke-dasharray:none"/>
    </marker>
    <marker id="arrow-green" viewBox="0 0 10 10" markerWidth="14" markerHeight="14" refX="9" refY="5" orient="auto" markerUnits="userSpaceOnUse">
      <path d="M 0 0 L 10 5 L 0 10 Z" fill="#059669" stroke="#059669" stroke-dasharray="none" style="stroke-dasharray:none"/>
    </marker>
    <marker id="arrow-red" viewBox="0 0 10 10" markerWidth="14" markerHeight="14" refX="9" refY="5" orient="auto" markerUnits="userSpaceOnUse">
      <path d="M 0 0 L 10 5 L 0 10 Z" fill="#dc2626" stroke="#dc2626" stroke-dasharray="none" style="stroke-dasharray:none"/>
    </marker>
    <symbol id="icon-s3" viewBox="0 0 40 40">
      <rect width="40" height="40" fill="#7AA116"/>
      <path fill="#FFFFFF" transform="translate(7.0002 6.0001)" d="M23.532,15.391 L23.729,13.932 C25.821,15.131 25.864,15.626 25.863,15.64 C25.859,15.643 25.509,15.923 23.532,15.391 Z M22.564,15.103 C19.722,14.206 15.904,12.531 13.723,11.504 C13.723,11.497 13.727,11.491 13.727,11.484 C13.727,10.821 13.187,10.281 12.524,10.281 C11.861,10.281 11.321,10.821 11.321,11.484 C11.321,12.148 11.861,12.687 12.524,12.687 C12.814,12.687 13.07,12.571 13.278,12.4 C14.547,12.994 19.075,15.076 22.428,16.113 L21.249,24.85 C21.249,25.716 17.575,27 12.5,27 C7.425,27 3.751,25.716 3.746,24.784 L1.283,6.563 C3.458,8.155 8.074,9 12.5,9 C16.926,9 21.543,8.155 23.718,6.563 L22.564,15.103 Z M1.003,4.489 C1.032,3.609 5.104,1 12.5,1 C19.895,1 23.97,3.609 24,4.489 L24,4.603 C23.81,6.231 19.137,8 12.5,8 C5.863,8 1.209,6.231 1.018,4.604 L1.003,4.489 Z M25,4.5 C25,2.665 20.131,0 12.5,0 C4.869,0 0,2.665 0,4.5 L0,4.567 L2.751,24.85 C2.751,26.896 7.773,28 12.5,28 C17.226,28 22.249,26.896 22.244,24.917 L23.396,16.39 C24.217,16.604 24.881,16.718 25.392,16.718 C25.985,16.718 26.386,16.574 26.628,16.285 C26.827,16.047 26.903,15.76 26.845,15.454 C26.708,14.716 25.797,13.919 23.89,12.87 L23.869,12.896 L25,4.567 L25,4.5 Z"/>
    </symbol>
    <symbol id="icon-sqs" viewBox="0 0 24 24">
      <path fill="#FF4F8B" d="m7.164 13.58 1.287-1.27a.425.425 0 0 0 .002-.603L7.166 10.42l-.608.601.552.552H5.147v.852h1.97l-.557.55Zm9.82.04 1.715-1.28a.427.427 0 0 0 0-.682l-1.716-1.277-.515.682.686.51H15.44v.853h1.715l-.686.511ZM9.945 12c0 .905-.156 1.758-.449 2.5a7.07 7.07 0 0 1 2.511-.445c.87 0 1.74.148 2.51.445a6.855 6.855 0 0 1-.448-2.5c0-.905.157-1.757.449-2.5-1.543.593-3.479.593-5.022 0 .293.743.45 1.595.45 2.5Zm-2.1 4.136a.424.424 0 0 1 0-.602c.778-.774 1.243-2.095 1.243-3.534 0-1.439-.465-2.76-1.244-3.534a.424.424 0 0 1 0-.602.43.43 0 0 1 .607 0c1.662 1.65 5.45 1.65 7.113 0a.43.43 0 0 1 .732.301.42.42 0 0 1-.126.301c-.778.774-1.243 2.095-1.243 3.534 0 1.439.465 2.76 1.243 3.534a.424.424 0 0 1 0 .602.43.43 0 0 1-.606 0c-1.662-1.65-5.451-1.65-7.113 0a.43.43 0 0 1-.607 0Zm15.299-4.134c0-.397-.155-.77-.438-1.051a1.495 1.495 0 0 0-1.058-.435c-.383 0-.766.145-1.058.435a1.481 1.481 0 0 0 0 2.102c.583.58 1.532.58 2.116 0 .283-.28.438-.654.438-1.05ZM3.85 12.012a1.491 1.491 0 0 0-1.496-1.487 1.493 1.493 0 0 0-1.496 1.487c0 .397.155.77.437 1.051.566.561 1.551.561 2.116 0 .283-.281.439-.654.439-1.051Zm14.535 6.354a9.034 9.034 0 0 1-6.41 2.639 9.033 9.033 0 0 1-6.41-2.638c-1.175-1.166-1.82-2.56-2.156-3.524l-.81.28c.364 1.047 1.07 2.566 2.36 3.846a9.888 9.888 0 0 0 7.016 2.888 9.888 9.888 0 0 0 7.016-2.888 10.234 10.234 0 0 0 2.43-3.848l-.812-.276a9.37 9.37 0 0 1-2.224 3.522ZM3.407 9.158l-.81-.28c.52-1.484 1.358-2.851 2.363-3.849a9.887 9.887 0 0 1 7.014-2.885 9.885 9.885 0 0 1 7.014 2.885 10.497 10.497 0 0 1 2.43 3.85l-.809.279a9.628 9.628 0 0 0-2.228-3.526 9.03 9.03 0 0 0-6.407-2.636 9.03 9.03 0 0 0-6.408 2.636c-.914.909-1.681 2.161-2.159 3.526Z"/>
    </symbol>
    <symbol id="icon-dynamodb" viewBox="0 0 24 24">
      <path fill="#4053D6" d="M16.606 20.705v-2.371c-1.263 1.082-3.884 1.795-7.066 1.795-3.184 0-5.805-.714-7.068-1.797v2.369c0 1.168 2.903 2.47 7.068 2.47 4.16 0 7.06-1.3 7.066-2.466zm.001-6.765l.817-.005v.005c0 .517-.258.998-.75 1.441.601.54.75 1.071.75 1.449a1661.7 1661.7 0 0 0 0 3.87c0 1.881-3.389 3.3-7.884 3.3-4.471 0-7.846-1.404-7.88-3.27a583.119 583.119 0 0 1-.003-3.909c.001-.375.15-.9.745-1.437-.592-.538-.743-1.062-.746-1.435v-3.892c.002-.377.153-.903.747-1.438-.593-.54-.744-1.062-.747-1.435 0-1.357-.002-2.735.002-3.897C1.674 1.412 5.056 0 9.54 0c2.159 0 4.233.356 5.689.974l-.315.766c-1.36-.58-3.319-.91-5.374-.91-4.165 0-7.067 1.3-7.067 2.47 0 1.168 2.902 2.47 7.067 2.47.115 0 .222 0 .334-.005l.033.828c-.122.006-.245.006-.367.006-3.184 0-5.805-.714-7.068-1.798v2.38c.005.45.45.843.821 1.093 1.116.736 3.114 1.239 5.34 1.342l-.037.829c-2.254-.105-4.23-.59-5.5-1.332-.318.245-.623.573-.623.952 0 1.168 2.902 2.47 7.067 2.47.411 0 .812-.014 1.203-.042l.06.826c-.41.03-.833.045-1.263.045-3.184 0-5.805-.713-7.068-1.797v2.368c.005.462.449.855.821 1.104 1.275.842 3.67 1.366 6.247 1.366h.182v.83H9.54c-2.62 0-4.99-.507-6.444-1.359-.317.245-.623.574-.623.954 0 1.168 2.902 2.47 7.067 2.47 4.159 0 7.058-1.298 7.066-2.465v-.007c0-.377-.303-.705-.62-.948a5.732 5.732 0 0 1-.662.336l-.316-.764c.3-.128.56-.266.776-.412.376-.254.823-.651.823-1.1zm4.377-6.915h-2.717a.406.406 0 0 1-.332-.173.42.42 0 0 1-.055-.375l1.204-3.597h-5.403l-2.583 4.974h2.623c.128 0 .248.06.325.164a.418.418 0 0 1 .069.36l-2.249 8.365zm1.249-.128l-10.89 11.608a.408.408 0 0 1-.498.075.418.418 0 0 1-.192-.471l2.534-9.426h-2.766a.407.407 0 0 1-.349-.2.418.418 0 0 1-.012-.407l3.014-5.804a.408.408 0 0 1 .36-.222h6.22c.132 0 .256.065.332.174a.422.422 0 0 1 .055.374l-1.204 3.598h3.1c.164 0 .31.099.375.251a.422.422 0 0 1-.08.45z"/>
    </symbol>
  </defs>
  <rect width="1800" height="1080" fill="#f8fafc"/>
  <text x="90" y="86" class="title">S3-SQS-DynamoDB document workflow</text>
  <text x="90" y="128" class="subtitle">A single local workflow composes the focused S3, SQS, and DynamoDB lessons without hiding AWS SDK request shapes.</text>

  <rect x="70" y="180" width="1660" height="255" rx="26" class="app"/>
  <text x="110" y="230" class="label">Application boundary</text>
  <rect x="130" y="290" width="340" height="95" rx="16" class="blue"/>
  <text x="170" y="330" class="label">Document submitter</text>
  <text x="170" y="365" class="small">tenant document body</text>
  <rect x="625" y="290" width="425" height="95" rx="16" class="green"/>
  <text x="665" y="330" class="label">DocumentWorkflow</text>
  <text x="665" y="365" class="small">object key, event, idempotency</text>
  <rect x="1220" y="290" width="340" height="95" rx="16" class="yellow"/>
  <text x="1260" y="330" class="label">ProcessOnce worker</text>
  <text x="1260" y="365" class="small">one message per call</text>

  <rect x="70" y="510" width="750" height="365" rx="26" class="workflow"/>
  <text x="110" y="560" class="label">Workflow-owned contracts</text>
  <rect x="130" y="620" width="300" height="92" rx="16" class="card"/>
  <text x="170" y="660" class="label">DocumentEvent JSON</text>
  <text x="170" y="694" class="small">object_key + idempotency_key</text>
  <rect x="480" y="620" width="285" height="92" rx="16" class="card"/>
  <text x="520" y="660" class="label">State record</text>
  <text x="520" y="694" class="small">PROCESSED if absent</text>
  <rect x="120" y="760" width="430" height="76" rx="16" class="red"/>
  <text x="160" y="806" class="label">transient failure -> retry visible</text>

  <rect x="900" y="510" width="830" height="415" rx="26" class="aws"/>
  <text x="940" y="548" class="label">Caller-owned AWS SDK and Floci resources</text>
  <rect x="960" y="675" width="220" height="125" rx="16" class="purple"/>
  <use href="#icon-s3" data-bluetape4k-icon="amazon-s3" x="995" y="710" width="48" height="48"/>
  <text x="1060" y="720" class="label">S3 bucket</text>
  <text x="1060" y="754" class="small">documents</text>
  <rect x="1235" y="675" width="220" height="125" rx="16" class="purple"/>
  <use href="#icon-sqs" data-bluetape4k-icon="amazon-sqs" x="1268" y="710" width="52" height="52"/>
  <text x="1335" y="720" class="label">SQS queue</text>
  <text x="1335" y="754" class="small">events</text>
  <rect x="1490" y="675" width="205" height="125" rx="16" class="purple"/>
  <use href="#icon-dynamodb" data-bluetape4k-icon="amazon-dynamodb" x="1520" y="710" width="52" height="52"/>
  <text x="1582" y="720" class="label">DynamoDB</text>
  <text x="1582" y="754" class="small">state table</text>

  <path class="arrow" stroke="#2563eb" marker-end="url(#arrow-blue)" d="M470 338 H625"/>
  <text x="504" y="316" class="small">Submit</text>
  <path class="arrow" stroke="#2563eb" marker-end="url(#arrow-blue)" d="M1050 338 H1220"/>
  <text x="1086" y="316" class="small">ProcessOnce</text>
  <path class="arrow" stroke="#059669" marker-end="url(#arrow-green)" d="M790 385 V560 Q790 585 765 585 H305 Q280 585 280 610 V620"/>
  <text x="486" y="568" class="small">marshal event + attributes</text>
  <path class="arrow" stroke="#059669" marker-end="url(#arrow-green)" d="M880 385 V575 Q880 600 905 600 H1070 Q1095 600 1095 635 V675"/>
  <text x="924" y="578" class="small">PutObject</text>
  <path class="arrow" stroke="#059669" marker-end="url(#arrow-green)" d="M1180 738 H1235"/>
  <text x="1196" y="718" class="small">SendMessage</text>
  <path class="arrow" stroke="#059669" marker-end="url(#arrow-green)" d="M622 712 V825 Q622 850 647 850 H1570 Q1595 850 1595 825 V800"/>
  <text x="1398" y="833" class="small">state write</text>

  <rect x="210" y="950" width="1380" height="70" rx="16" class="card"/>
  <text x="250" y="995" class="footer">Reader contract: S3 persists bytes, SQS transports an at-least-once event, and DynamoDB decides whether processing is new or duplicate.</text>
</svg>
